<?xml version="1.0" encoding="UTF-8"?>
<!DOCTYPE svg PUBLIC "-//W3C//DTD SVG 1.1//EN" "http://www.w3.org/Graphics/SVG/1.1/DTD/svg11.dtd">
<!-- Creator: CorelDRAW -->
<svg xmlns="http://www.w3.org/2000/svg" xml:space="preserve" width="210mm" height="297mm" version="1.1" style="shape-rendering:geometricPrecision; text-rendering:geometricPrecision; image-rendering:optimizeQuality; fill-rule:evenodd; clip-rule:evenodd"
viewBox="0 0 21000 29700"
 xmlns:xlink="http://www.w3.org/1999/xlink"
 xmlns:xodm="http://www.corel.com/coreldraw/odm/2003">
 <defs>
  <style type="text/css">
   <![CDATA[
    .fil2 {fill:#FEFEFE}
    .fil0 {fill:#57613D}
    .fil1 {fill:#A8AC89}
   ]]>
  </style>
 </defs>
 <g id="Layer_x0020_1">
  <metadata id="CorelCorpID_0Corel-Layer"/>
  <path class="fil0" d="M11211.82 4331.64c0,-30.09 67.44,-8.47 93.14,-8.47 31,0 26.44,-4.23 38.1,-4.23 56.72,0 40.78,4.82 42.33,46.56l4.23 186.28c0,26.83 -170.87,38.85 -180.35,32.14l6.79 -188.77c0.24,-43.57 -4.24,-29.27 -4.24,-63.5l0 -0.01zm3602.91 39.28c-0.39,-14.41 9.06,-43.52 7.12,-63.41 -1.56,-16.14 -8.94,-39.16 -5.88,-58.98 29.12,-3.91 39.27,33.77 96.82,39.7 26.35,2.72 47.12,4.54 16.42,22.18 -18.07,10.38 -25.26,13.2 -42.31,25.98 -12.16,9.11 -70.94,80.36 -72.17,34.53zm-173.51 -0.85c-20.99,161.48 -250.09,-110.46 -233.21,-127.34 11.14,-11.15 55.31,25.05 84.14,30.48 29.23,5.5 69.45,-5.48 97.26,-14.34 89.82,-28.59 69.24,-22.85 51.81,111.2zm-6185.3 -436.38c0,-78.79 87.88,-126.43 138.49,-174.7 56.06,-53.47 106.28,-105.44 165.92,-155.9 111.24,-94.11 225.45,-204.63 335.88,-303.39 29.62,-26.48 57.04,-49.2 86.35,-74.48 36.25,-31.24 54.16,-69.51 85.68,-40.98 57.32,51.88 113.72,97.92 168.65,149.45 110.8,103.93 231.12,195.15 338.78,300.49 106.01,103.72 224.8,206.9 332.1,307.19 30.48,28.49 487.9,64.39 570.99,68.18 195.77,8.91 393.11,39.28 587.59,51.68 97.98,6.25 204.34,11.42 297.21,24.43 52.59,7.37 267.3,-2.25 270.57,47 -36.36,33.18 -754.71,-38.26 -855.76,-45.82 -149.67,-11.2 -295.72,-12.25 -440.86,-24.89 -68.71,-5.99 -154.29,-9.55 -223.21,-9.66 -50.15,-0.09 -181.98,-37.81 -181.98,21.1 0.18,261.97 0.86,499.51 -4.96,761.26 -76.95,37.28 -265.81,-11.67 -335.67,-31.08 -55.85,-15.51 -306.63,-50.31 -322.17,-74.02 -8.18,-27.2 9.89,-574.47 -7.66,-596.02l-392.11 -5.12c-18.82,-0.13 -42.38,-4.11 -42.33,16.94 0.32,126.22 7.23,369.81 -0.73,481.87 -25.72,8.66 -233.9,-35.61 -283.4,-41.13 -39.03,-4.35 -291.6,-16.88 -291.6,-42.81l4.23 -50.81c-6.6,-137.04 -0.43,-292.5 0,-431.8l0 -127 0 0.02zm-1600.2 -283.64c0,-13.43 3.43,-20.41 6.85,-29.63 17.29,5.74 45.04,41.15 57.69,54 42.13,42.77 31.11,13.89 75.16,34.91 -1.79,20.38 -41.8,56.97 -58.16,73.1 -18.46,18.21 -48.84,49.53 -83.51,49.63l1.97 -182 0 -0.01zm-330.19 71.98c81.42,0 129.9,-86 156.63,-93.14 0,20.06 -28.7,181.83 -36.21,209.24 -19.67,71.79 -35.22,136.58 -116.8,104.68 -46.79,-18.29 -105.49,-75.16 -134.87,-110.74 -15.72,-19.04 -86.37,-130.04 -66.95,-165.08 15.28,-8.95 84.43,55.04 126.22,55.04l71.97 0 0.01 0zm-982.14 -791.65c-118.52,27.61 -260.16,174.09 -292.15,296.31 -113.16,432.38 482.67,899.41 925.58,573.1 14.69,7.19 105.13,140.41 126.61,165.51 47.04,54.99 94.87,99.38 154.57,137.51 107.66,68.77 94.46,49.62 78.58,184.89 -33.77,287.52 -15.33,237.9 -144.18,227.89l-116.63 -6.17c-2.27,1.09 -500.91,54.47 -546.83,58.53 -166,14.71 -358.59,60.01 -514.67,90.74 -156.31,30.77 -348.66,73 -488.32,116.95 -53.76,16.91 -453.22,97.88 -442.46,160.48 20.54,27.37 155.49,-17.17 205.38,-24.99 75.13,-11.78 145.72,-21.46 224.76,-33.23 145.95,-21.74 307.12,-52.78 453,-63.64 138.01,-10.28 311.66,-42.93 457.58,-58.73 153.01,-16.57 318.73,-24.93 472.9,-43.74 309.55,-37.75 645.02,-38.99 958.98,-73.66 350.58,-38.73 649.77,3.83 985.04,15.05 579.66,19.41 1281.61,183.6 1729.49,340.74 129.99,45.61 247.7,91.77 380.24,136.23 63.93,21.45 136.37,51.2 190.65,68.13 36.55,11.39 160.04,-28.12 208.78,-38.01 133.22,-27.02 282.87,-64.49 421.52,-95.02 137.7,-30.31 298.21,-51.03 434.83,-85.84 156.63,-39.9 721.73,-105.57 908.28,-124.64 321.54,-32.84 630.05,-50.88 975.53,-61.77 671.03,-21.14 1336.86,15.56 1953.79,99.37 308.55,41.91 608.92,78.05 901.19,131.77 291.77,53.61 562.76,122.04 850.53,186.57 276.85,62.08 539.78,134.59 822.27,210.75 128.18,34.55 272.06,77.03 394.31,122.11 52.66,19.42 355.74,141.58 379.58,127.38 17.86,-49.73 -396.13,-190.34 -453.98,-209.65 -155.79,-52 -313.87,-126.46 -482.48,-186.22 -321.21,-113.84 -675.7,-233.83 -1019.11,-318.72 -355.65,-87.92 -696.15,-192.67 -1083.51,-254.14 -176,-27.93 -394.28,-59.72 -571.15,-97.65 -143.31,-30.73 -204.95,-0.77 -90.27,-115.28 15.69,-15.67 174.97,-156.03 181.01,-157.64 0.92,0.07 112.5,66.45 141.96,78.18 415.17,165.27 751.85,-88.16 669.36,-309.53 -74.74,-200.58 -147.16,-174.08 -196.75,-247.75 78.14,-154.44 -119.09,-312.16 -235.78,-369.56 -53.01,-26.07 -141,-34.24 -171.36,-48.81 -6.62,-13.81 -4.45,-74.94 -31.24,-129.52 -21.12,-43.04 -36.86,-71.03 -69.23,-104.44 -59.44,-61.36 -115.24,-105.2 -200.88,-141.97 -247.58,-106.32 -595.05,-86.49 -744.6,159.75 -50.48,83.12 -1.32,39.06 -116.84,52.54 -136.42,15.91 -251.64,85.99 -310.51,205.87 -64.11,130.58 34.81,215.47 38.21,266.79 -26.44,12.69 -182.68,20.35 -276.93,163.34 -80.75,122.5 -4.91,240.15 66.16,309.9 111.84,109.76 322.29,185.3 493.04,147.77 90.21,-19.82 108.28,-51.26 155.38,-66.44l-9.66 10.22 250.62 236.94c-7.86,3.09 -486.9,-47.27 -563.42,-53.44 -186.89,-15.05 -416.32,-24.23 -606.2,-24.46 -208.03,-0.26 -419.05,9.18 -618.12,8.56 -96.2,-0.29 -555.71,40.73 -594.3,29.62l-0.47 -393.71 256.02 6.2c10.85,-36.49 -179,-201.67 -208.42,-229.51 -76.5,-72.41 -155.52,-142.94 -230.75,-217.99 -146.98,-146.61 -319.42,-284.41 -465.68,-431.81 -47.82,-48.19 -50.81,-76.77 -137.51,-82.63 -73.87,-5 -123.53,-16.01 -199.54,-24.71 -398.56,-45.66 -795.83,-106.24 -1194.61,-151.7 -132.46,-15.11 -262.12,-33.58 -397.83,-46.72 -126.61,-12.27 -279.14,-28.35 -399.13,-49.59 -81.23,-14.36 -85.31,21.15 -139.47,69.55 -40.21,35.92 -76.4,72.56 -116.88,107.54 -81.73,70.61 -153.01,148.23 -232.85,215.72 -160.25,135.49 -310.18,276.85 -469.23,424.01 -69.61,64.41 -161.09,163.73 -232.02,216.86 -78.78,58.99 -101.4,67.63 38.22,67.75 39.24,0.03 197.22,-5.44 207.43,8.5l-0.26 560.7 -1348.87 -33.64 0.27 -10.6c-17.88,-13.75 -20.44,-419.16 -6.89,-462.53 2.57,-8.2 222.8,-249.7 233.92,-257.14 7.24,0.48 138.95,62.36 192.08,74.49 91.07,20.77 168.37,-0.16 236.66,-18.31 160.33,-42.63 217.17,-121.78 305.62,-232.06 70.66,-88.1 192.97,-180.38 150.35,-370.19 -16.25,-72.37 -49.09,-127.65 -86.27,-180.49 -50.7,-72.06 -93.83,-72.55 -150.02,-120.85 -1.85,-42.44 43.51,-100.94 -4.45,-228.37 -61.93,-164.5 -230.52,-282.29 -395.58,-294.42 -88.22,-6.49 -46.43,-2.07 -67.36,-72.21 -68.89,-230.82 -344.84,-464.46 -667.21,-439.75 -173.76,13.32 -314.96,53.35 -412.26,141.29 -53.14,48.04 -88.35,86.05 -127.19,148.03 -79.67,127.16 -2.95,66.86 -172.11,107.16 -219.45,52.29 -386.77,187.57 -415,415.01 -15.23,122.7 59.09,166.24 59.09,211.29l0.05 0zm13411.23 4432.3c0,-154.69 109.13,-251.63 218.18,-302.49 46.98,-21.9 150.19,-51.62 202.65,-59.91 41.71,-6.59 82.08,-2.82 123.34,-7.78 57.63,-6.91 65.43,-31.55 65.43,31.52 0,150.67 -4.84,362.71 5.16,511.95 5.67,84.56 -200.26,186.56 -297.27,186.56l-97.36 0c-141.97,0 -220.13,-144.48 -220.13,-296.34l0 -63.5 0 -0.01zm-397.92 -1075.26c0,15.39 86.27,149.11 97.37,148.16 1.3,-0.49 76.97,-65.55 104.73,-81.46 39.12,-22.42 76.31,-47.59 120.95,-65.27 87.29,-34.58 186.94,-69.59 304.18,-70.73 243.75,-2.38 384.54,124.08 384.54,361.4l0 122.75c0,18.74 -4.23,6.42 -4.23,33.87 0,14.89 4.23,8.31 4.23,42.33 0,40.4 -326.05,70.89 -379.08,78.14 -120.81,16.53 -257.43,58.84 -361.25,95.88 -193.02,68.87 -411.14,241.76 -411.14,503.32l0 59.26c0,250.36 241.42,469.9 495.31,469.9l160.87 0c214.17,0 479.27,-234.55 508,-237.06 1.04,0.76 58.29,113.97 103.66,150.3 41.41,33.18 107.92,76.91 179.79,78.44 89.61,1.91 153.77,-11.54 212.38,-42.03 312.68,-162.62 63.4,-81.92 13.5,-281.23 -16.24,-64.88 -9.81,-235.61 -9.81,-316.12 0,-215.9 0,-431.8 0,-647.7 0,-218.22 -40.9,-388.33 -144.89,-502.76 -82.57,-90.85 -277.48,-195.74 -452,-195.74l-186.28 0c-118.64,0 -324.24,65.42 -412.81,103.7 -40.26,17.41 -328.02,168.97 -328.02,192.64l0 0.01zm-1883.49 -205.09c-88.54,-2.35 -80.86,-28.04 -80.51,90.79l-0.28 1718.73c0,28.76 38.02,25.4 59.27,25.4 81.3,0 163.59,-0.01 245.53,0 88.03,0.01 207.71,22.71 207.43,-42.33l-2.9 -833.61c10.72,2.71 311.81,393.41 348.51,437.2 50.41,60.12 304.02,438.74 348.66,438.74 97.46,0 431.42,-5.98 537.64,4.23 71.26,0 -62.67,-126.87 -72.18,-139.41 -36.83,-48.57 -71.98,-95.92 -108.93,-145.15 -111.45,-148.51 -650.74,-767.86 -674.03,-849.97 139.57,-139.11 275.18,-258.2 426,-390.94 72.8,-64.08 138.35,-137.28 211.61,-199.17 37.72,-31.86 64.77,-65.43 108.48,-94.69 13.3,-8.89 52.23,-38.21 31.61,-58.86 -11.93,-11.97 -64.05,7.06 -87.66,7.06 -66.36,0 -198.12,-1.06 -254,-8.47 -28.69,0 -170.29,176.77 -200.07,206.34 -68.1,67.63 -130.18,141.09 -198.17,208.11 -42.53,41.91 -403.24,392.49 -417.25,392.55 2.73,-261.67 -0.78,-516.06 -1.57,-777.36 0,-13.6 6.41,-57.91 -12.7,-55.04l-414.51 65.85 0.02 0zm-1456.64 1627.48c-10.73,-30.42 -0.06,-642.42 0,-736.61 0.07,-103.84 -34.16,-122.15 59.28,-122.86 158.98,-1.19 291.3,-27.98 439.3,111.14 118.32,111.24 158.83,414.16 56.19,579.27 -91.15,146.64 -302.9,227.73 -554.76,169.07l-0.01 -0.01zm-431.79 -1625.59c-30.89,0 -13.04,-4.24 -46.56,-4.24 -47.92,0 -26.35,75.92 -26.98,122.77 -5.25,393.62 -2.07,787.42 -2.68,1181.1 0,90.79 2.94,192.41 1.73,280.01 -0.77,56.88 -27.73,253.39 27.9,253.39 104.36,0 670.31,0.98 723.9,-4.23 235.82,0 468.4,-50.02 614.69,-143.06 131.55,-83.66 282.78,-262.95 282.78,-479.24l0 -88.9c0,-90.21 -86.82,-244.66 -127.81,-295.53 -65.1,-80.83 -141.06,-127.55 -250.19,-173.12 -299.97,-125.25 -724.52,-46.15 -762.4,-75.83l-7.29 -564.65c-0.06,-7.9 4.67,-13.5 4.67,-50.81 0,-50.66 -55.34,-18.52 -84.33,-12.33l-347.47 54.68 0.04 -0.01zm-1092.2 1900.75l139.7 0c77.62,0 305.01,-71.15 362.73,-98.7 111.6,-53.26 191.19,-108.91 284.97,-179.96l-61.11 -124.44c-23.47,1.4 -257,144.88 -438.42,144.88l-59.27 0c-289.29,0 -472,-175.91 -543.67,-413.07 -43.28,-143.22 -49,-228.07 -49,-370.1 0,-308.71 104.2,-620.16 316.84,-711.87 131.27,-56.61 297.4,-63.7 436.42,-7.61 57.86,23.35 193.88,106.84 233.5,156.13 19.51,24.27 27.95,66.34 71.58,51.12 8.38,-24.02 16.36,-91.86 27.74,-128.88 11.06,-35.97 39.99,-105.34 39.99,-125.12 0,-44.56 -350.55,-161.38 -422.53,-170.18 -222.93,-27.27 -328.89,-26.38 -534.38,21.87 -307.96,72.32 -537.46,278.71 -637.37,556.49 -123.14,342.34 -99.39,701.63 62.16,975.79 126.95,215.44 420.29,423.66 770.13,423.66l-0.01 -0.01zm-1676.4 -1862.66l-2.99 702.74c-135.81,4.62 -271.78,-0.71 -407.64,-0.01l-76.2 0c-47.85,0 -245.54,19.99 -245.54,-25.4l-2.01 -774.73c-97.81,0.43 -149.71,13.8 -257.77,28.04 -35.12,4.63 -248.21,7.84 -248.21,35.49l4.23 1756.83c-1.23,19.74 -4.73,18.1 -4.23,46.57 0,44.26 196.29,25.4 245.53,25.4 40.18,0 243.79,0.12 258.97,-11.97l7.73 -800.83c0.04,-32.42 -18.46,-46.57 25.4,-46.57l651.94 4.24c10.35,0.6 6.91,-4.24 33.87,-4.24 24.33,0 12.7,30.46 12.7,46.57l4.23 736.6c0,33.64 -27.73,79.97 42.33,76.2 32.9,-1.77 26.44,-5.12 67.74,-4.23 108.44,2.31 248.2,-2.23 352.72,3.16 59.72,3.08 40.98,-55.95 40.98,-113.23 -0.01,-102.25 0,-202.53 0,-300.57l0 -1325.03c-3.48,-104.31 -5.7,-32.35 -0.07,-118.53 5.07,-77.68 -47.72,-38.39 -155.05,-23.8 -47.02,6.39 -84.4,12.21 -130.48,17.52 -236.97,27.3 -218.16,-22.99 -218.16,69.79l-0.02 -0.01zm-2112.44 -50.8c-65.35,0 -42.33,31.59 -42.33,84.66 0,537.37 -4.42,1090.27 -0.79,1625.6l-3.43 105.84c0.04,44.18 65.16,25.36 76.07,24.62 52.84,-3.56 274.75,2.51 347.25,1.72 16.5,-0.18 78.26,-0.62 89.05,-5.18l0.43 -901.72c3.87,-66.12 1.56,-210.06 2.07,-275.16 1.98,-202.23 -2.72,-409.17 -2.65,-613.84 0.02,-56.91 18.75,-115.52 -47.11,-98.96 -74.13,18.65 -349.29,52.39 -418.55,52.39l-0.01 0.03zm-1261.53 -25.39l-474.14 0c-21.84,0 -63.5,-23.51 -63.5,33.86 0,13.12 4.24,8.95 4.24,25.4l0 448.74c0,243.41 -41.54,624.12 -91.03,823.46 -46.24,186.26 -145.79,300.88 -296.71,388.97 -51.48,30.05 -129.47,38.22 -171.06,61.8 -6.26,64.43 166.06,148.17 232.83,148.17l122.77 0c32.91,0 165.79,-67.89 190.45,-84.72 165.96,-113.3 258.8,-329.58 295.01,-543.23 25.76,-151.96 54.86,-325.5 68.15,-486.4 11.67,-141.23 39.06,-424.54 39.06,-549.35 0,-24.78 -21.99,-42.63 21.17,-42.34l423.35 5.83c9.74,57.26 6.22,23.82 4.22,70.37l4.11 1519.78c-2.25,28.48 -8.6,17.35 0.12,42.33 70.1,6.13 50.4,6.4 114.3,4.24l396.48 -8.48 1.46 -783.16c4.69,-199.49 -3.9,-427.01 0,-639.23l-2.66 -122.77c-8.57,-366.97 39.84,-316.83 -107.39,-316.87l-711.21 3.6 -0.02 0zm-2484.97 817.02c0,-310.1 131.21,-660.4 423.33,-660.4l88.9 0c295.07,0 399.81,483.91 397.98,804.28 -1.35,237.82 -14.98,340.84 -66.55,534.63 -32.61,122.58 -171.96,273.98 -322.97,273.98l-71.97 0c-295.45,0 -448.73,-465.74 -448.73,-783.17l0 -169.33 0.01 0.01zm359.84 1130.31c340.74,0 583.48,-46.52 771.44,-223.32 160.64,-151.1 286.66,-362.7 310.55,-654.94 25.12,-307.08 -31.43,-599.6 -165.5,-779.01 -75.86,-101.51 -138.84,-173.11 -250.12,-232.51 -77.69,-41.47 -254.88,-112.58 -370.04,-112.58l-127 0c-342.45,0 -634.45,291.28 -635,291.32 -5.05,-8.39 22.81,-254.73 28.95,-283.55 108.41,-509.19 586.82,-501.45 1020.56,-605.03 142.75,-34.08 326.33,-152.81 326.33,-325.58 0,-46.05 -1.15,-232.84 -38.1,-232.84 -1.44,0 -232.06,87.26 -266.09,97.94 -87.98,27.61 -201.46,43.56 -290.26,73.85 -199.49,68.04 -363.45,89.42 -533.06,194.99 -284.85,177.29 -496.75,498.03 -587.69,872.84 -89.33,368.16 -156.74,910.14 -27.56,1290.61 89.65,264.05 279.27,466.32 533.5,558.51 56.1,20.35 227.1,69.33 299.09,69.33l0 -0.03zm-2108.2 -287.88c-241.17,0 -290,-352.26 -180.41,-523.27 52.5,-81.93 149.13,-129.57 248.93,-161.83 35.29,-11.39 325.18,-81.66 325.18,-38.8 0,169.09 -9.06,377.39 1.7,540.86 4.95,75.2 -219.02,183.04 -327.67,183.04l-67.73 0zm-524.95 -1286.93c15.03,-5.31 97.98,-102.57 268.88,-158.87 87.83,-28.93 261.44,-70.57 377.1,-42.67 132.79,32.05 203.57,65.64 244.69,187.22 16.74,49.55 50.11,337.76 21.13,380.01 -13.08,14.73 -349.63,55.46 -402.46,67.38 -127.88,28.86 -257.42,61.41 -366.17,107.97 -223.4,95.67 -394.16,232.19 -384.55,559.71 7.32,249.2 240.88,437.64 479.51,464.55 383.22,43.23 617.44,-246.51 693.22,-252.98 48.44,91.56 37.11,123.1 127.1,190.41 50.77,37.98 154.67,87.79 254.86,51.92 80.72,-28.91 146.88,-63.85 210.82,-106.8 128.72,-86.44 29.64,-52.86 -44.83,-150.09 -67.89,-88.65 -48.41,-433.03 -48.41,-590.81 0.01,-211.61 4.52,-430.78 -12.22,-626.94 -30.97,-362.84 -350,-535.96 -758.75,-512.38 -283.58,16.35 -490.62,121.23 -701.39,255.46 -41.86,26.65 -80.33,26.94 -25.29,82.8 35.09,35.61 34.4,76.97 66.78,94.1l-0.02 0.01zm-3115.74 -126.99l0 237.07c0,202.8 95.95,477.51 161.96,608.45 91.62,181.72 192.41,309.68 334.21,436.35 128.89,115.14 292.81,231.39 470.24,300.17 149.28,57.86 430.2,145.17 629.56,145.17 304.7,0 526.41,7.67 802.47,-99.28 72.95,-28.26 425.55,-185.6 443.71,-229.35l-105.72 -184.43 8.36 -4.98c-12.91,-3.41 -119.72,80.64 -148.08,96.35 -59.77,33.12 -108.08,49.99 -175.12,74.75 -194.95,71.99 -298.73,84.47 -512.33,84.47 -360.71,0 -670.46,-207.3 -827.9,-395.53 -81.93,-97.95 -179.38,-252.84 -225.26,-384.44 -43.94,-126.03 -98.31,-354.31 -98.31,-515.43l0 -211.66c0,-397.04 134.34,-784.69 299.97,-1003.95 154.68,-204.74 480.36,-456.56 847.27,-456.56l122.75 0c157.03,0 347.15,55.88 455.31,103.49 110.07,48.45 172.87,83.93 266.68,152.37 31.43,22.93 47.32,62.65 83.93,61.64l122.08 -321.09c-35.5,-33.69 -311.03,-139.2 -377.46,-157.55 -252.14,-69.63 -388.43,-71.71 -639.42,-71.71 -601.51,0 -1023.16,213.35 -1350.54,486.64 -247.64,206.74 -434.05,531.26 -522.61,853.27 -19.38,70.43 -65.71,313.59 -65.71,395.77l-0.04 0zm7788.02 -3804.07c-66.86,0 -123.47,-11.69 -169.84,-35.05 -46.37,-23.37 -81.77,-56.79 -106.21,-100.29 -24.45,-43.49 -38.11,-95.79 -40.98,-156.89 -0.72,-29.48 -1.07,-61.11 -1.07,-94.9 0,-33.79 0.36,-66.14 1.07,-97.06 2.87,-60.39 16.71,-112.51 41.52,-156.36 24.82,-43.85 60.39,-77.46 106.76,-100.82 46.37,-23.37 102.62,-35.05 168.76,-35.05 48.88,0 92.73,6.47 131.55,19.41 38.82,12.94 71.89,30.73 99.22,53.38 27.31,22.64 48.52,49.06 63.62,79.26 15.09,30.19 23,62.91 23.72,98.12 0.72,6.47 -1.26,11.86 -5.93,16.19 -4.67,4.31 -10.25,6.47 -16.71,6.47l-102.45 0c-7.9,0 -14.37,-1.98 -19.41,-5.93 -5.03,-3.96 -8.62,-10.61 -10.78,-19.95 -11.5,-47.45 -31.27,-79.8 -59.31,-97.06 -28.03,-17.25 -62.91,-25.88 -104.59,-25.88 -48.18,0 -86.63,13.48 -115.38,40.44 -28.76,26.95 -44.21,71.34 -46.37,133.18 -2.16,58.95 -2.16,119.33 0,181.16 2.16,61.82 17.61,106.21 46.37,133.18 28.76,26.96 67.21,40.44 115.38,40.44 41.69,0 76.56,-8.81 104.59,-26.42 28.04,-17.62 47.81,-49.78 59.31,-96.51 2.16,-10.07 5.75,-16.9 10.78,-20.49 5.04,-3.59 11.51,-5.4 19.41,-5.4l102.45 0c6.46,0 12.04,2.15 16.71,6.47 4.67,4.31 6.65,9.7 5.93,16.17 -0.72,35.22 -8.63,67.94 -23.72,98.13 -15.1,30.19 -36.31,56.61 -63.62,79.26 -27.32,22.64 -60.39,40.43 -99.22,53.37 -38.82,12.94 -82.67,19.41 -131.55,19.41l-0.01 0.02zm649.07 -10.77c-5.75,0 -10.96,-2.16 -15.63,-6.47 -4.68,-4.31 -7.01,-9.7 -7.01,-16.17 0,-2.88 0.72,-6.12 2.15,-9.7l259.88 -695.52c2.15,-7.17 6.29,-13.48 12.4,-18.87 6.11,-5.4 14.56,-8.08 25.34,-8.08l117.54 0c10.78,0 19.05,2.69 24.8,8.08 5.75,5.4 10.06,11.69 12.94,18.87l259.87 695.52c0.72,3.59 1.07,6.83 1.07,9.7 0,6.47 -2.16,11.86 -6.47,16.17 -4.31,4.31 -9.34,6.47 -15.1,6.47l-93.81 0c-10.06,0 -17.43,-2.34 -22.1,-7.01 -4.68,-4.67 -7.73,-9.16 -9.17,-13.48l-50.68 -131.55 -320.26 0 -50.68 131.55c-1.44,4.32 -4.5,8.81 -9.17,13.48 -4.67,4.67 -12.04,7.01 -22.1,7.01l-93.82 0 0.01 0zm213.51 -276.06l244.78 0 -122.93 -333.2 -121.85 333.2zm798.99 425.94c-7.19,0 -13.3,-2.34 -18.35,-7.01 -5.03,-4.68 -7.54,-10.97 -7.54,-18.87l0 -232.92c0,-7.19 2.51,-13.3 7.54,-18.33 5.04,-5.03 11.15,-7.56 18.35,-7.56l21.56 0c17.26,0 31.99,-8.09 44.21,-24.26 12.22,-16.19 22.29,-39.9 30.2,-71.17 7.9,-31.27 13.66,-69.91 17.25,-115.92 3.59,-46.01 5.4,-98.49 5.4,-157.44l0 -225.36c0,-7.19 2.52,-13.3 7.56,-18.35 5.03,-5.03 11.5,-7.54 19.41,-7.54l462.6 0c7.91,0 14.38,2.51 19.41,7.54 5.03,5.04 7.56,11.51 7.56,19.41l0 593.08 51.76 0c7.9,0 14.37,2.52 19.41,7.56 5.03,5.03 7.54,11.14 7.54,18.33l0 232.92c0,7.9 -2.51,14.19 -7.54,18.87 -5.04,4.67 -11.51,7.01 -19.41,7.01l-97.06 0c-7.91,0 -14.2,-2.34 -18.87,-7.01 -4.68,-4.68 -7.01,-10.97 -7.01,-18.87l0 -124.01 -439.96 0 0 124.01c0,7.9 -2.51,14.19 -7.56,18.87 -5.03,4.67 -11.5,7.01 -19.41,7.01l-97.04 0 -0.01 0.01zm204.88 -284.68l280.36 0 0 -485.24 -221.06 0 0 135.86c0,89.15 -5.03,161.93 -15.09,218.35 -10.07,56.44 -24.8,100.11 -44.21,131.02l0 0.01zm903.57 134.78c-7.19,0 -13.3,-2.52 -18.33,-7.56 -5.03,-5.03 -7.56,-11.5 -7.56,-19.41l0 -700.91c0,-7.9 2.52,-14.37 7.56,-19.41 5.03,-5.03 11.5,-7.54 19.41,-7.54l97.06 0c7.9,0 14.19,2.51 18.87,7.54 4.67,5.04 7.01,11.51 7.01,19.41l0 494.95 354.77 -504.65c2.88,-3.6 6.83,-7.37 11.86,-11.32 5.04,-3.96 11.51,-5.93 19.41,-5.93l89.5 0c7.19,0 13.3,2.51 18.35,7.54 5.03,5.04 7.54,11.51 7.54,19.41l0 701.99c0,7.19 -2.51,13.3 -7.54,18.33 -5.04,5.03 -11.15,7.56 -18.35,7.56l-97.04 0c-7.91,0 -14.38,-2.52 -19.41,-7.56 -5.04,-5.03 -7.56,-11.14 -7.56,-18.33l0 -485.24 -353.69 493.87c-2.16,2.87 -5.75,6.47 -10.78,10.78 -5.04,4.31 -11.86,6.47 -20.49,6.47l-90.57 0 -0.02 0.01zm1068.55 0c-7.19,0 -13.3,-2.52 -18.33,-7.56 -5.03,-5.03 -7.56,-11.14 -7.56,-18.33l0 -701.99c0,-7.9 2.52,-14.37 7.56,-19.41 5.03,-5.03 11.14,-7.54 18.33,-7.54l493.87 0c7.91,0 14.2,2.51 18.87,7.54 4.67,5.04 7.01,11.51 7.01,19.41l0 75.49c0,7.19 -2.34,13.3 -7.01,18.33 -4.67,5.03 -10.96,7.56 -18.87,7.56l-369.86 0 0 172.53 182.23 0c81.23,0 144.86,20.13 190.86,60.38 46.01,40.26 69.02,94.9 69.02,163.91 0,29.47 -5.57,58.05 -16.72,85.72 -11.14,27.68 -27.49,52.31 -49.06,73.87 -21.57,21.57 -48.53,38.64 -80.87,51.22 -32.35,12.58 -70.1,18.87 -113.23,18.87l-306.24 0zm124.01 -114.3l167.14 0c25.87,0 47.79,-5.4 65.77,-16.19 17.96,-10.78 31.63,-25.16 40.98,-43.13 9.34,-17.96 14.02,-37.38 14.02,-58.23 0,-31.63 -10.07,-57.87 -30.2,-78.72 -20.13,-20.84 -50.32,-31.27 -90.57,-31.27l-167.14 0 0 227.53 0 0.01zm751.51 114.3c-5.75,0 -10.96,-2.16 -15.63,-6.47 -4.68,-4.31 -7.01,-9.7 -7.01,-16.17 0,-2.88 0.72,-6.12 2.15,-9.7l259.88 -695.52c2.15,-7.17 6.29,-13.48 12.4,-18.87 6.11,-5.4 14.56,-8.08 25.34,-8.08l117.54 0c10.78,0 19.05,2.69 24.8,8.08 5.75,5.4 10.06,11.69 12.94,18.87l259.87 695.52c0.72,3.59 1.07,6.83 1.07,9.7 0,6.47 -2.16,11.86 -6.47,16.17 -4.31,4.31 -9.34,6.47 -15.1,6.47l-93.81 0c-10.06,0 -17.43,-2.34 -22.1,-7.01 -4.68,-4.67 -7.73,-9.16 -9.17,-13.48l-50.68 -131.55 -320.26 0 -50.68 131.55c-1.44,4.32 -4.5,8.81 -9.17,13.48 -4.67,4.67 -12.04,7.01 -22.1,7.01l-93.82 0 0.01 0zm213.51 -276.05l244.78 0 -122.93 -333.2 -121.85 333.2zm-3374.97 3104.54c160.93,0 291.4,87.18 291.4,194.74 0,107.55 -130.47,194.73 -291.4,194.73 -160.93,0 -291.4,-87.18 -291.4,-194.73 0,-107.56 130.47,-194.74 291.4,-194.74z"/>
  <path class="fil1" d="M14065.11 5135.97c268.07,0 534.39,5.64 800.05,12.68 238.72,6.34 468.87,30.62 694.42,37.99 231.34,7.57 446.63,40.74 671.61,60.79 108.86,9.7 214.95,31.86 314.98,49.01 45.56,7.8 291.26,61.77 306.55,21.56 -15.18,-35.07 -565.5,-126.68 -645.56,-143.92 -230.62,-49.66 -431.51,-76.17 -675.68,-111.73 -236.44,-34.43 -461.87,-48.97 -707.76,-79.61 -533.1,-66.4 -834.85,-54.21 -1351.29,-54.21 -127.71,0 -305.01,12.37 -428.87,24.08 -144.76,13.68 -282.32,9.77 -421.66,31.41 -265.9,41.3 -545.97,57.95 -795.28,114.84 -258.16,58.91 -499.28,99.81 -743.12,167.06 -124.74,34.4 -226.54,66.78 -346.89,106.16 -28.18,9.21 -169.58,31.65 -173.16,56.44 -9.23,63.78 128.73,20.57 166.84,13.25 375.91,-72.25 1220.33,-178.54 1612.04,-208.23 560.87,-42.51 1141.01,-97.57 1722.77,-97.57l0.01 0zm4854.84 -287.87c1.2,-37.25 -112.94,-74.43 -141.62,-86.12 -54.12,-22.06 -105.86,-50.46 -159.89,-73.11 -441.14,-184.83 -549.16,-221.89 -1038.37,-358.64 -244.82,-68.43 -509.24,-114.61 -780.23,-151.03 -136.73,-18.37 -287.01,-35.39 -423.01,-42.63 -35.62,-1.9 -200.8,-25.97 -207.46,0.86 -7.52,30.3 144.28,182.49 -61.49,306.63 -23.1,13.94 -50.51,27.85 -77.72,36.6 -48,15.45 -62.79,56.03 -11.64,49.67 313.1,-38.83 1051.07,-10.8 1339.84,25.9 143.88,18.29 270.71,35.8 408.88,56.93 68.84,10.53 140.95,15.44 205.79,27.03 67.21,12.03 122.92,30.48 194.19,38.52 108.67,12.23 282.94,51.45 388.2,77.59 49.17,12.21 351.8,99.65 364.53,91.79l0 0.01zm-12605.41 -368.91c-44.64,-55.57 -362.11,-211.62 -437.78,-248.08 -474.51,-228.62 -772.08,-366.12 -1283.89,-536.4 -113.04,-37.61 -234.98,-64.64 -351.68,-101.28 -123.67,-38.82 -247.19,-50.18 -372.18,-85.09 -158.73,-44.32 -638.55,-83.33 -841.83,-63.14 -312.54,31.04 -498.66,61.75 -757.72,152.34 -209.4,73.23 -432.52,196.46 -592.33,318.07 -61.13,46.53 -463.88,411.53 -443.25,458.33 25.43,15.45 99.94,-49.46 122.37,-63.83 145.14,-92.98 513.79,-241.93 682.03,-291.57 48.65,-14.35 104.64,-28.48 155.2,-39.6 42.53,-9.37 117.15,-22.46 160.83,-34.04 180.88,-47.96 469.63,-86.24 691.44,-87.37 61.41,-0.32 105.84,-12.76 182,-12.76 170.45,0.01 402.38,-0.17 563.93,24.56 116.33,17.81 233.01,26.46 345.34,44.09 302.68,47.51 689.19,124.91 973.28,199.3 149.54,39.15 1146.99,327.5 1165.46,396.69l38.78 -30.24 0 0.02z"/>
  <path class="fil2" d="M14065.11 16631.49c268.07,0 534.39,5.64 800.05,12.68 238.72,6.34 468.87,30.62 694.42,37.99 231.34,7.57 446.63,40.74 671.61,60.79 108.86,9.7 214.95,31.86 314.98,49.01 45.56,7.8 291.26,61.77 306.55,21.56 -15.18,-35.07 -565.5,-126.68 -645.56,-143.92 -230.62,-49.66 -431.51,-76.17 -675.68,-111.73 -236.44,-34.43 -461.87,-48.97 -707.76,-79.61 -533.1,-66.4 -834.85,-54.21 -1351.29,-54.21 -127.71,0 -305.01,12.37 -428.87,24.08 -144.76,13.68 -282.32,9.77 -421.66,31.41 -265.9,41.3 -545.97,57.95 -795.28,114.84 -258.16,58.91 -499.28,99.81 -743.12,167.06 -124.74,34.4 -226.54,66.78 -346.89,106.16 -28.18,9.21 -169.58,31.65 -173.16,56.44 -9.23,63.78 128.73,20.57 166.84,13.25 375.91,-72.25 1220.33,-178.54 1612.04,-208.23 560.87,-42.51 1141.01,-97.57 1722.77,-97.57l0.01 0zm4854.84 -287.87c1.2,-37.25 -112.94,-74.43 -141.62,-86.12 -54.12,-22.06 -105.86,-50.46 -159.89,-73.11 -441.14,-184.83 -549.16,-221.89 -1038.37,-358.64 -244.82,-68.43 -509.24,-114.61 -780.23,-151.03 -136.73,-18.37 -287.01,-35.39 -423.01,-42.63 -35.62,-1.9 -200.8,-25.97 -207.46,0.86 -7.52,30.3 144.28,182.49 -61.49,306.63 -23.1,13.94 -50.51,27.85 -77.72,36.6 -48,15.45 -62.79,56.03 -11.64,49.67 313.1,-38.83 1051.07,-10.8 1339.84,25.9 143.88,18.29 270.71,35.8 408.88,56.93 68.84,10.53 140.95,15.44 205.79,27.03 67.21,12.03 122.92,30.48 194.19,38.52 108.67,12.23 282.94,51.45 388.2,77.59 49.17,12.21 351.8,99.65 364.53,91.79l0 0.01zm-12605.41 -368.91c-44.64,-55.57 -362.11,-211.62 -437.78,-248.08 -474.51,-228.62 -772.08,-366.12 -1283.89,-536.4 -113.04,-37.61 -234.98,-64.64 -351.68,-101.28 -123.67,-38.82 -247.19,-50.18 -372.18,-85.09 -158.73,-44.32 -638.55,-83.33 -841.83,-63.14 -312.54,31.04 -498.66,61.75 -757.72,152.34 -209.4,73.23 -432.52,196.46 -592.33,318.07 -61.13,46.53 -463.88,411.53 -443.25,458.33 25.43,15.45 99.94,-49.46 122.37,-63.83 145.14,-92.98 513.79,-241.93 682.03,-291.57 48.65,-14.35 104.64,-28.48 155.2,-39.6 42.53,-9.37 117.15,-22.46 160.83,-34.04 180.88,-47.96 469.63,-86.24 691.44,-87.37 61.41,-0.32 105.84,-12.76 182,-12.76 170.45,0.01 402.38,-0.17 563.93,24.56 116.33,17.81 233.01,26.46 345.34,44.09 302.68,47.51 689.19,124.91 973.28,199.3 149.54,39.15 1146.99,327.5 1165.46,396.69l38.78 -30.24 0 0.02zm4897.28 -147.55c0,-30.09 67.44,-8.47 93.14,-8.47 31,0 26.44,-4.23 38.1,-4.23 56.72,0 40.78,4.82 42.33,46.56l4.23 186.28c0,26.83 -170.87,38.85 -180.35,32.14l6.79 -188.77c0.24,-43.57 -4.24,-29.27 -4.24,-63.5l0 -0.01zm3602.91 39.28c-0.39,-14.41 9.06,-43.52 7.12,-63.41 -1.56,-16.14 -8.94,-39.16 -5.88,-58.98 29.12,-3.91 39.27,33.77 96.82,39.7 26.35,2.72 47.12,4.54 16.42,22.18 -18.07,10.38 -25.26,13.2 -42.31,25.98 -12.16,9.11 -70.94,80.36 -72.17,34.53zm-173.51 -0.85c-20.99,161.48 -250.09,-110.46 -233.21,-127.34 11.14,-11.15 55.31,25.05 84.14,30.48 29.23,5.5 69.45,-5.48 97.26,-14.34 89.82,-28.59 69.24,-22.85 51.81,111.2zm-6185.3 -436.38c0,-78.79 87.88,-126.43 138.49,-174.7 56.06,-53.47 106.28,-105.44 165.92,-155.9 111.24,-94.11 225.45,-204.63 335.88,-303.39 29.62,-26.48 57.04,-49.2 86.35,-74.48 36.25,-31.24 54.16,-69.51 85.68,-40.98 57.32,51.88 113.72,97.92 168.65,149.45 110.8,103.93 231.12,195.15 338.78,300.49 106.01,103.72 224.8,206.9 332.1,307.19 30.48,28.49 487.9,64.39 570.99,68.18 195.77,8.91 393.11,39.28 587.59,51.68 97.98,6.25 204.34,11.42 297.21,24.43 52.59,7.37 267.3,-2.25 270.57,47 -36.36,33.18 -754.71,-38.26 -855.76,-45.82 -149.67,-11.2 -295.72,-12.25 -440.86,-24.89 -68.71,-5.99 -154.29,-9.55 -223.21,-9.66 -50.15,-0.09 -181.98,-37.81 -181.98,21.1 0.18,261.97 0.86,499.51 -4.96,761.26 -76.95,37.28 -265.81,-11.67 -335.67,-31.08 -55.85,-15.51 -306.63,-50.31 -322.17,-74.02 -8.18,-27.2 9.89,-574.47 -7.66,-596.02l-392.11 -5.12c-18.82,-0.13 -42.38,-4.11 -42.33,16.94 0.32,126.22 7.23,369.81 -0.73,481.87 -25.72,8.66 -233.9,-35.61 -283.4,-41.13 -39.03,-4.35 -291.6,-16.88 -291.6,-42.81l4.23 -50.81c-6.6,-137.04 -0.43,-292.5 0,-431.8l0 -127 0 0.02zm-1600.2 -283.64c0,-13.43 3.43,-20.41 6.85,-29.63 17.29,5.74 45.04,41.15 57.69,54 42.13,42.77 31.11,13.89 75.16,34.91 -1.79,20.38 -41.8,56.97 -58.16,73.1 -18.46,18.21 -48.84,49.53 -83.51,49.63l1.97 -182 0 -0.01zm-330.19 71.98c81.42,0 129.9,-86 156.63,-93.14 0,20.06 -28.7,181.83 -36.21,209.24 -19.67,71.79 -35.22,136.58 -116.8,104.68 -46.79,-18.29 -105.49,-75.16 -134.87,-110.74 -15.72,-19.04 -86.37,-130.04 -66.95,-165.08 15.28,-8.95 84.43,55.04 126.22,55.04l71.97 0 0.01 0zm-982.14 -791.65c-118.52,27.61 -260.16,174.09 -292.15,296.31 -113.16,432.38 482.67,899.41 925.58,573.1 14.69,7.19 105.13,140.41 126.61,165.51 47.04,54.99 94.87,99.38 154.57,137.51 107.66,68.77 94.46,49.62 78.58,184.89 -33.77,287.52 -15.33,237.9 -144.18,227.89l-116.63 -6.17c-2.27,1.09 -500.91,54.47 -546.83,58.53 -166,14.71 -358.59,60.01 -514.67,90.74 -156.31,30.77 -348.66,73 -488.32,116.95 -53.76,16.91 -453.22,97.88 -442.46,160.48 20.54,27.37 155.49,-17.17 205.38,-24.99 75.13,-11.78 145.72,-21.46 224.76,-33.23 145.95,-21.74 307.12,-52.78 453,-63.64 138.01,-10.28 311.66,-42.93 457.58,-58.73 153.01,-16.57 318.73,-24.93 472.9,-43.74 309.55,-37.75 645.02,-38.99 958.98,-73.66 350.58,-38.73 649.77,3.83 985.04,15.05 579.66,19.41 1281.61,183.6 1729.49,340.74 129.99,45.61 247.7,91.77 380.24,136.23 63.93,21.45 136.37,51.2 190.65,68.13 36.55,11.39 160.04,-28.12 208.78,-38.01 133.22,-27.02 282.87,-64.49 421.52,-95.02 137.7,-30.31 298.21,-51.03 434.83,-85.84 156.63,-39.9 721.73,-105.57 908.28,-124.64 321.54,-32.84 630.05,-50.88 975.53,-61.77 671.03,-21.14 1336.86,15.56 1953.79,99.37 308.55,41.91 608.92,78.05 901.19,131.77 291.77,53.61 562.76,122.04 850.53,186.57 276.85,62.08 539.78,134.59 822.27,210.75 128.18,34.55 272.06,77.03 394.31,122.11 52.66,19.42 355.74,141.58 379.58,127.38 17.86,-49.73 -396.13,-190.34 -453.98,-209.65 -155.79,-52 -313.87,-126.46 -482.48,-186.22 -321.21,-113.84 -675.7,-233.83 -1019.11,-318.72 -355.65,-87.92 -696.15,-192.67 -1083.51,-254.14 -176,-27.93 -394.28,-59.72 -571.15,-97.65 -143.31,-30.73 -204.95,-0.77 -90.27,-115.28 15.69,-15.67 174.97,-156.03 181.01,-157.64 0.92,0.07 112.5,66.45 141.96,78.18 415.17,165.27 751.85,-88.16 669.36,-309.53 -74.74,-200.58 -147.16,-174.08 -196.75,-247.75 78.14,-154.44 -119.09,-312.16 -235.78,-369.56 -53.01,-26.07 -141,-34.24 -171.36,-48.81 -6.62,-13.81 -4.45,-74.94 -31.24,-129.52 -21.12,-43.04 -36.86,-71.03 -69.23,-104.44 -59.44,-61.36 -115.24,-105.2 -200.88,-141.97 -247.58,-106.32 -595.05,-86.49 -744.6,159.75 -50.48,83.12 -1.32,39.06 -116.84,52.54 -136.42,15.91 -251.64,85.99 -310.51,205.87 -64.11,130.58 34.81,215.47 38.21,266.79 -26.44,12.69 -182.68,20.35 -276.93,163.34 -80.75,122.5 -4.91,240.15 66.16,309.9 111.84,109.76 322.29,185.3 493.04,147.77 90.21,-19.82 108.28,-51.26 155.38,-66.44l-9.66 10.22 250.62 236.94c-7.86,3.09 -486.9,-47.27 -563.42,-53.44 -186.89,-15.05 -416.32,-24.23 -606.2,-24.46 -208.03,-0.26 -419.05,9.18 -618.12,8.56 -96.2,-0.29 -555.71,40.73 -594.3,29.62l-0.47 -393.71 256.02 6.2c10.85,-36.49 -179,-201.67 -208.42,-229.51 -76.5,-72.41 -155.52,-142.94 -230.75,-217.99 -146.98,-146.61 -319.42,-284.41 -465.68,-431.81 -47.82,-48.19 -50.81,-76.77 -137.51,-82.63 -73.87,-5 -123.53,-16.01 -199.54,-24.71 -398.56,-45.66 -795.83,-106.24 -1194.61,-151.7 -132.46,-15.11 -262.12,-33.58 -397.83,-46.72 -126.61,-12.27 -279.14,-28.35 -399.13,-49.59 -81.23,-14.36 -85.31,21.15 -139.47,69.55 -40.21,35.92 -76.4,72.56 -116.88,107.54 -81.73,70.61 -153.01,148.23 -232.85,215.72 -160.25,135.49 -310.18,276.85 -469.23,424.01 -69.61,64.41 -161.09,163.73 -232.02,216.86 -78.78,58.99 -101.4,67.63 38.22,67.75 39.24,0.03 197.22,-5.44 207.43,8.5l-0.26 560.7 -1348.87 -33.64 0.27 -10.6c-17.88,-13.75 -20.44,-419.16 -6.89,-462.53 2.57,-8.2 222.8,-249.7 233.92,-257.14 7.24,0.48 138.95,62.36 192.08,74.49 91.07,20.77 168.37,-0.16 236.66,-18.31 160.33,-42.63 217.17,-121.78 305.62,-232.06 70.66,-88.1 192.97,-180.38 150.35,-370.19 -16.25,-72.37 -49.09,-127.65 -86.27,-180.49 -50.7,-72.06 -93.83,-72.55 -150.02,-120.85 -1.85,-42.44 43.51,-100.94 -4.45,-228.37 -61.93,-164.5 -230.52,-282.29 -395.58,-294.42 -88.22,-6.49 -46.43,-2.07 -67.36,-72.21 -68.89,-230.82 -344.84,-464.46 -667.21,-439.75 -173.76,13.32 -314.96,53.35 -412.26,141.29 -53.14,48.04 -88.35,86.05 -127.19,148.03 -79.67,127.16 -2.95,66.86 -172.11,107.16 -219.45,52.29 -386.77,187.57 -415,415.01 -15.23,122.7 59.09,166.24 59.09,211.29l0.05 0zm13411.23 4432.3c0,-154.69 109.13,-251.63 218.18,-302.49 46.98,-21.9 150.19,-51.62 202.65,-59.91 41.71,-6.59 82.08,-2.82 123.34,-7.78 57.63,-6.91 65.43,-31.55 65.43,31.52 0,150.67 -4.84,362.71 5.16,511.95 5.67,84.56 -200.26,186.56 -297.27,186.56l-97.36 0c-141.97,0 -220.13,-144.48 -220.13,-296.34l0 -63.5 0 -0.01zm-397.92 -1075.26c0,15.39 86.27,149.11 97.37,148.16 1.3,-0.49 76.97,-65.55 104.73,-81.46 39.12,-22.42 76.31,-47.59 120.95,-65.27 87.29,-34.58 186.94,-69.59 304.18,-70.73 243.75,-2.38 384.54,124.08 384.54,361.4l0 122.75c0,18.74 -4.23,6.42 -4.23,33.87 0,14.89 4.23,8.31 4.23,42.33 0,40.4 -326.05,70.89 -379.08,78.14 -120.81,16.53 -257.43,58.84 -361.25,95.88 -193.02,68.87 -411.14,241.76 -411.14,503.32l0 59.26c0,250.36 241.42,469.9 495.31,469.9l160.87 0c214.17,0 479.27,-234.55 508,-237.06 1.04,0.76 58.29,113.97 103.66,150.3 41.41,33.18 107.92,76.91 179.79,78.44 89.61,1.91 153.77,-11.54 212.38,-42.03 312.68,-162.62 63.4,-81.92 13.5,-281.23 -16.24,-64.88 -9.81,-235.61 -9.81,-316.12 0,-215.9 0,-431.8 0,-647.7 0,-218.22 -40.9,-388.33 -144.89,-502.76 -82.57,-90.85 -277.48,-195.74 -452,-195.74l-186.28 0c-118.64,0 -324.24,65.42 -412.81,103.7 -40.26,17.41 -328.02,168.97 -328.02,192.64l0 0.01zm-1883.49 -205.09c-88.54,-2.35 -80.86,-28.04 -80.51,90.79l-0.28 1718.73c0,28.76 38.02,25.4 59.27,25.4 81.3,0 163.59,-0.01 245.53,0 88.03,0.01 207.71,22.71 207.43,-42.33l-2.9 -833.61c10.72,2.71 311.81,393.41 348.51,437.2 50.41,60.12 304.02,438.74 348.66,438.74 97.46,0 431.42,-5.98 537.64,4.23 71.26,0 -62.67,-126.87 -72.18,-139.41 -36.83,-48.57 -71.98,-95.92 -108.93,-145.15 -111.45,-148.51 -650.74,-767.86 -674.03,-849.97 139.57,-139.11 275.18,-258.2 426,-390.94 72.8,-64.08 138.35,-137.28 211.61,-199.17 37.72,-31.86 64.77,-65.43 108.48,-94.69 13.3,-8.89 52.23,-38.21 31.61,-58.86 -11.93,-11.97 -64.05,7.06 -87.66,7.06 -66.36,0 -198.12,-1.06 -254,-8.47 -28.69,0 -170.29,176.77 -200.07,206.34 -68.1,67.63 -130.18,141.09 -198.17,208.11 -42.53,41.91 -403.24,392.49 -417.25,392.55 2.73,-261.67 -0.78,-516.06 -1.57,-777.36 0,-13.6 6.41,-57.91 -12.7,-55.04l-414.51 65.85 0.02 0zm-1456.64 1627.48c-10.73,-30.42 -0.06,-642.42 0,-736.61 0.07,-103.84 -34.16,-122.15 59.28,-122.86 158.98,-1.19 291.3,-27.98 439.3,111.14 118.32,111.24 158.83,414.16 56.19,579.27 -91.15,146.64 -302.9,227.73 -554.76,169.07l-0.01 -0.01zm-431.79 -1625.59c-30.89,0 -13.04,-4.24 -46.56,-4.24 -47.92,0 -26.35,75.92 -26.98,122.77 -5.25,393.62 -2.07,787.42 -2.68,1181.1 0,90.79 2.94,192.41 1.73,280.01 -0.77,56.88 -27.73,253.39 27.9,253.39 104.36,0 670.31,0.98 723.9,-4.23 235.82,0 468.4,-50.02 614.69,-143.06 131.55,-83.66 282.78,-262.95 282.78,-479.24l0 -88.9c0,-90.21 -86.82,-244.66 -127.81,-295.53 -65.1,-80.83 -141.06,-127.55 -250.19,-173.12 -299.97,-125.25 -724.52,-46.15 -762.4,-75.83l-7.29 -564.65c-0.06,-7.9 4.67,-13.5 4.67,-50.81 0,-50.66 -55.34,-18.52 -84.33,-12.33l-347.47 54.68 0.04 -0.01zm-1092.2 1900.75l139.7 0c77.62,0 305.01,-71.15 362.73,-98.7 111.6,-53.26 191.19,-108.91 284.97,-179.96l-61.11 -124.44c-23.47,1.4 -257,144.88 -438.42,144.88l-59.27 0c-289.29,0 -472,-175.91 -543.67,-413.07 -43.28,-143.22 -49,-228.07 -49,-370.1 0,-308.71 104.2,-620.16 316.84,-711.87 131.27,-56.61 297.4,-63.7 436.42,-7.61 57.86,23.35 193.88,106.84 233.5,156.13 19.51,24.27 27.95,66.34 71.58,51.12 8.38,-24.02 16.36,-91.86 27.74,-128.88 11.06,-35.97 39.99,-105.34 39.99,-125.12 0,-44.56 -350.55,-161.38 -422.53,-170.18 -222.93,-27.27 -328.89,-26.38 -534.38,21.87 -307.96,72.32 -537.46,278.71 -637.37,556.49 -123.14,342.34 -99.39,701.63 62.16,975.79 126.95,215.44 420.29,423.66 770.13,423.66l-0.01 -0.01zm-1676.4 -1862.66l-2.99 702.74c-135.81,4.62 -271.78,-0.71 -407.64,-0.01l-76.2 0c-47.85,0 -245.54,19.99 -245.54,-25.4l-2.01 -774.73c-97.81,0.43 -149.71,13.8 -257.77,28.04 -35.12,4.63 -248.21,7.84 -248.21,35.49l4.23 1756.83c-1.23,19.74 -4.73,18.1 -4.23,46.57 0,44.26 196.29,25.4 245.53,25.4 40.18,0 243.79,0.12 258.97,-11.97l7.73 -800.83c0.04,-32.42 -18.46,-46.57 25.4,-46.57l651.94 4.24c10.35,0.6 6.91,-4.24 33.87,-4.24 24.33,0 12.7,30.46 12.7,46.57l4.23 736.6c0,33.64 -27.73,79.97 42.33,76.2 32.9,-1.77 26.44,-5.12 67.74,-4.23 108.44,2.31 248.2,-2.23 352.72,3.16 59.72,3.08 40.98,-55.95 40.98,-113.23 -0.01,-102.25 0,-202.53 0,-300.57l0 -1325.03c-3.48,-104.31 -5.7,-32.35 -0.07,-118.53 5.07,-77.68 -47.72,-38.39 -155.05,-23.8 -47.02,6.39 -84.4,12.21 -130.48,17.52 -236.97,27.3 -218.16,-22.99 -218.16,69.79l-0.02 -0.01zm-2112.44 -50.8c-65.35,0 -42.33,31.59 -42.33,84.66 0,537.37 -4.42,1090.27 -0.79,1625.6l-3.43 105.84c0.04,44.18 65.16,25.36 76.07,24.62 52.84,-3.56 274.75,2.51 347.25,1.72 16.5,-0.18 78.26,-0.62 89.05,-5.18l0.43 -901.72c3.87,-66.12 1.56,-210.06 2.07,-275.16 1.98,-202.23 -2.72,-409.17 -2.65,-613.84 0.02,-56.91 18.75,-115.52 -47.11,-98.96 -74.13,18.65 -349.29,52.39 -418.55,52.39l-0.01 0.03zm-1261.53 -25.39l-474.14 0c-21.84,0 -63.5,-23.51 -63.5,33.86 0,13.12 4.24,8.95 4.24,25.4l0 448.74c0,243.41 -41.54,624.12 -91.03,823.46 -46.24,186.26 -145.79,300.88 -296.71,388.97 -51.48,30.05 -129.47,38.22 -171.06,61.8 -6.26,64.43 166.06,148.17 232.83,148.17l122.77 0c32.91,0 165.79,-67.89 190.45,-84.72 165.96,-113.3 258.8,-329.58 295.01,-543.23 25.76,-151.96 54.86,-325.5 68.15,-486.4 11.67,-141.23 39.06,-424.54 39.06,-549.35 0,-24.78 -21.99,-42.63 21.17,-42.34l423.35 5.83c9.74,57.26 6.22,23.82 4.22,70.37l4.11 1519.78c-2.25,28.48 -8.6,17.35 0.12,42.33 70.1,6.13 50.4,6.4 114.3,4.24l396.48 -8.48 1.46 -783.16c4.69,-199.49 -3.9,-427.01 0,-639.23l-2.66 -122.77c-8.57,-366.97 39.84,-316.83 -107.39,-316.87l-711.21 3.6 -0.02 0zm-2484.97 817.02c0,-310.1 131.21,-660.4 423.33,-660.4l88.9 0c295.07,0 399.81,483.91 397.98,804.28 -1.35,237.82 -14.98,340.84 -66.55,534.63 -32.61,122.58 -171.96,273.98 -322.97,273.98l-71.97 0c-295.45,0 -448.73,-465.74 -448.73,-783.17l0 -169.33 0.01 0.01zm359.84 1130.31c340.74,0 583.48,-46.52 771.44,-223.32 160.64,-151.1 286.66,-362.7 310.55,-654.94 25.12,-307.08 -31.43,-599.6 -165.5,-779.01 -75.86,-101.51 -138.84,-173.11 -250.12,-232.51 -77.69,-41.47 -254.88,-112.58 -370.04,-112.58l-127 0c-342.45,0 -634.45,291.28 -635,291.32 -5.05,-8.39 22.81,-254.73 28.95,-283.55 108.41,-509.19 586.82,-501.45 1020.56,-605.03 142.75,-34.08 326.33,-152.81 326.33,-325.58 0,-46.05 -1.15,-232.84 -38.1,-232.84 -1.44,0 -232.06,87.26 -266.09,97.94 -87.98,27.61 -201.46,43.56 -290.26,73.85 -199.49,68.04 -363.45,89.42 -533.06,194.99 -284.85,177.29 -496.75,498.03 -587.69,872.84 -89.33,368.16 -156.74,910.14 -27.56,1290.61 89.65,264.05 279.27,466.32 533.5,558.51 56.1,20.35 227.1,69.33 299.09,69.33l0 -0.03zm-2108.2 -287.88c-241.17,0 -290,-352.26 -180.41,-523.27 52.5,-81.93 149.13,-129.57 248.93,-161.83 35.29,-11.39 325.18,-81.66 325.18,-38.8 0,169.09 -9.06,377.39 1.7,540.86 4.95,75.2 -219.02,183.04 -327.67,183.04l-67.73 0zm-524.95 -1286.93c15.03,-5.31 97.98,-102.57 268.88,-158.87 87.83,-28.93 261.44,-70.57 377.1,-42.67 132.79,32.05 203.57,65.64 244.69,187.22 16.74,49.55 50.11,337.76 21.13,380.01 -13.08,14.73 -349.63,55.46 -402.46,67.38 -127.88,28.86 -257.42,61.41 -366.17,107.97 -223.4,95.67 -394.16,232.19 -384.55,559.71 7.32,249.2 240.88,437.64 479.51,464.55 383.22,43.23 617.44,-246.51 693.22,-252.98 48.44,91.56 37.11,123.1 127.1,190.41 50.77,37.98 154.67,87.79 254.86,51.92 80.72,-28.91 146.88,-63.85 210.82,-106.8 128.72,-86.44 29.64,-52.86 -44.83,-150.09 -67.89,-88.65 -48.41,-433.03 -48.41,-590.81 0.01,-211.61 4.52,-430.78 -12.22,-626.94 -30.97,-362.84 -350,-535.96 -758.75,-512.38 -283.58,16.35 -490.62,121.23 -701.39,255.46 -41.86,26.65 -80.33,26.94 -25.29,82.8 35.09,35.61 34.4,76.97 66.78,94.1l-0.02 0.01zm-3115.74 -126.99l0 237.07c0,202.8 95.95,477.51 161.96,608.45 91.62,181.72 192.41,309.68 334.21,436.35 128.89,115.14 292.81,231.39 470.24,300.17 149.28,57.86 430.2,145.17 629.56,145.17 304.7,0 526.41,7.67 802.47,-99.28 72.95,-28.26 425.55,-185.6 443.71,-229.35l-105.72 -184.43 8.36 -4.98c-12.91,-3.41 -119.72,80.64 -148.08,96.35 -59.77,33.12 -108.08,49.99 -175.12,74.75 -194.95,71.99 -298.73,84.47 -512.33,84.47 -360.71,0 -670.46,-207.3 -827.9,-395.53 -81.93,-97.95 -179.38,-252.84 -225.26,-384.44 -43.94,-126.03 -98.31,-354.31 -98.31,-515.43l0 -211.66c0,-397.04 134.34,-784.69 299.97,-1003.95 154.68,-204.74 480.36,-456.56 847.27,-456.56l122.75 0c157.03,0 347.15,55.88 455.31,103.49 110.07,48.45 172.87,83.93 266.68,152.37 31.43,22.93 47.32,62.65 83.93,61.64l122.08 -321.09c-35.5,-33.69 -311.03,-139.2 -377.46,-157.55 -252.14,-69.63 -388.43,-71.71 -639.42,-71.71 -601.51,0 -1023.16,213.35 -1350.54,486.64 -247.64,206.74 -434.05,531.26 -522.61,853.27 -19.38,70.43 -65.71,313.59 -65.71,395.77l-0.04 0zm7788.02 -3804.07c-66.86,0 -123.47,-11.69 -169.84,-35.05 -46.37,-23.37 -81.77,-56.79 -106.21,-100.29 -24.45,-43.49 -38.11,-95.79 -40.98,-156.89 -0.72,-29.48 -1.07,-61.11 -1.07,-94.9 0,-33.79 0.36,-66.14 1.07,-97.06 2.87,-60.39 16.71,-112.51 41.52,-156.36 24.82,-43.85 60.39,-77.46 106.76,-100.82 46.37,-23.37 102.62,-35.05 168.76,-35.05 48.88,0 92.73,6.47 131.55,19.41 38.82,12.94 71.89,30.73 99.22,53.38 27.31,22.64 48.52,49.06 63.62,79.26 15.09,30.19 23,62.91 23.72,98.12 0.72,6.47 -1.26,11.86 -5.93,16.19 -4.67,4.31 -10.25,6.47 -16.71,6.47l-102.45 0c-7.9,0 -14.37,-1.98 -19.41,-5.93 -5.03,-3.96 -8.62,-10.61 -10.78,-19.95 -11.5,-47.45 -31.27,-79.8 -59.31,-97.06 -28.03,-17.25 -62.91,-25.88 -104.59,-25.88 -48.18,0 -86.63,13.48 -115.38,40.44 -28.76,26.95 -44.21,71.34 -46.37,133.18 -2.16,58.95 -2.16,119.33 0,181.16 2.16,61.82 17.61,106.21 46.37,133.18 28.76,26.96 67.21,40.44 115.38,40.44 41.69,0 76.56,-8.81 104.59,-26.42 28.04,-17.62 47.81,-49.78 59.31,-96.51 2.16,-10.07 5.75,-16.9 10.78,-20.49 5.04,-3.59 11.51,-5.4 19.41,-5.4l102.45 0c6.46,0 12.04,2.15 16.71,6.47 4.67,4.31 6.65,9.7 5.93,16.17 -0.72,35.22 -8.63,67.94 -23.72,98.13 -15.1,30.19 -36.31,56.61 -63.62,79.26 -27.32,22.64 -60.39,40.43 -99.22,53.37 -38.82,12.94 -82.67,19.41 -131.55,19.41l-0.01 0.02zm649.07 -10.77c-5.75,0 -10.96,-2.16 -15.63,-6.47 -4.68,-4.31 -7.01,-9.7 -7.01,-16.17 0,-2.88 0.72,-6.12 2.15,-9.7l259.88 -695.52c2.15,-7.17 6.29,-13.48 12.4,-18.87 6.11,-5.4 14.56,-8.08 25.34,-8.08l117.54 0c10.78,0 19.05,2.69 24.8,8.08 5.75,5.4 10.06,11.69 12.94,18.87l259.87 695.52c0.72,3.59 1.07,6.83 1.07,9.7 0,6.47 -2.16,11.86 -6.47,16.17 -4.31,4.31 -9.34,6.47 -15.1,6.47l-93.81 0c-10.06,0 -17.43,-2.34 -22.1,-7.01 -4.68,-4.67 -7.73,-9.16 -9.17,-13.48l-50.68 -131.55 -320.26 0 -50.68 131.55c-1.44,4.32 -4.5,8.81 -9.17,13.48 -4.67,4.67 -12.04,7.01 -22.1,7.01l-93.82 0 0.01 0zm213.51 -276.06l244.78 0 -122.93 -333.2 -121.85 333.2zm798.99 425.94c-7.19,0 -13.3,-2.34 -18.35,-7.01 -5.03,-4.68 -7.54,-10.97 -7.54,-18.87l0 -232.92c0,-7.19 2.51,-13.3 7.54,-18.33 5.04,-5.03 11.15,-7.56 18.35,-7.56l21.56 0c17.26,0 31.99,-8.09 44.21,-24.26 12.22,-16.19 22.29,-39.9 30.2,-71.17 7.9,-31.27 13.66,-69.91 17.25,-115.92 3.59,-46.01 5.4,-98.49 5.4,-157.44l0 -225.36c0,-7.19 2.52,-13.3 7.56,-18.35 5.03,-5.03 11.5,-7.54 19.41,-7.54l462.6 0c7.91,0 14.38,2.51 19.41,7.54 5.03,5.04 7.56,11.51 7.56,19.41l0 593.08 51.76 0c7.9,0 14.37,2.52 19.41,7.56 5.03,5.03 7.54,11.14 7.54,18.33l0 232.92c0,7.9 -2.51,14.19 -7.54,18.87 -5.04,4.67 -11.51,7.01 -19.41,7.01l-97.06 0c-7.91,0 -14.2,-2.34 -18.87,-7.01 -4.68,-4.68 -7.01,-10.97 -7.01,-18.87l0 -124.01 -439.96 0 0 124.01c0,7.9 -2.51,14.19 -7.56,18.87 -5.03,4.67 -11.5,7.01 -19.41,7.01l-97.04 0 -0.01 0.01zm204.88 -284.68l280.36 0 0 -485.24 -221.06 0 0 135.86c0,89.15 -5.03,161.93 -15.09,218.35 -10.07,56.44 -24.8,100.11 -44.21,131.02l0 0.01zm903.57 134.78c-7.19,0 -13.3,-2.52 -18.33,-7.56 -5.03,-5.03 -7.56,-11.5 -7.56,-19.41l0 -700.91c0,-7.9 2.52,-14.37 7.56,-19.41 5.03,-5.03 11.5,-7.54 19.41,-7.54l97.06 0c7.9,0 14.19,2.51 18.87,7.54 4.67,5.04 7.01,11.51 7.01,19.41l0 494.95 354.77 -504.65c2.88,-3.6 6.83,-7.37 11.86,-11.32 5.04,-3.96 11.51,-5.93 19.41,-5.93l89.5 0c7.19,0 13.3,2.51 18.35,7.54 5.03,5.04 7.54,11.51 7.54,19.41l0 701.99c0,7.19 -2.51,13.3 -7.54,18.33 -5.04,5.03 -11.15,7.56 -18.35,7.56l-97.04 0c-7.91,0 -14.38,-2.52 -19.41,-7.56 -5.04,-5.03 -7.56,-11.14 -7.56,-18.33l0 -485.24 -353.69 493.87c-2.16,2.87 -5.75,6.47 -10.78,10.78 -5.04,4.31 -11.86,6.47 -20.49,6.47l-90.57 0 -0.02 0.01zm1068.55 0c-7.19,0 -13.3,-2.52 -18.33,-7.56 -5.03,-5.03 -7.56,-11.14 -7.56,-18.33l0 -701.99c0,-7.9 2.52,-14.37 7.56,-19.41 5.03,-5.03 11.14,-7.54 18.33,-7.54l493.87 0c7.91,0 14.2,2.51 18.87,7.54 4.67,5.04 7.01,11.51 7.01,19.41l0 75.49c0,7.19 -2.34,13.3 -7.01,18.33 -4.67,5.03 -10.96,7.56 -18.87,7.56l-369.86 0 0 172.53 182.23 0c81.23,0 144.86,20.13 190.86,60.38 46.01,40.26 69.02,94.9 69.02,163.91 0,29.47 -5.57,58.05 -16.72,85.72 -11.14,27.68 -27.49,52.31 -49.06,73.87 -21.57,21.57 -48.53,38.64 -80.87,51.22 -32.35,12.58 -70.1,18.87 -113.23,18.87l-306.24 0zm124.01 -114.3l167.14 0c25.87,0 47.79,-5.4 65.77,-16.19 17.96,-10.78 31.63,-25.16 40.98,-43.13 9.34,-17.96 14.02,-37.38 14.02,-58.23 0,-31.63 -10.07,-57.87 -30.2,-78.72 -20.13,-20.84 -50.32,-31.27 -90.57,-31.27l-167.14 0 0 227.53 0 0.01zm751.51 114.3c-5.75,0 -10.96,-2.16 -15.63,-6.47 -4.68,-4.31 -7.01,-9.7 -7.01,-16.17 0,-2.88 0.72,-6.12 2.15,-9.7l259.88 -695.52c2.15,-7.17 6.29,-13.48 12.4,-18.87 6.11,-5.4 14.56,-8.08 25.34,-8.08l117.54 0c10.78,0 19.05,2.69 24.8,8.08 5.75,5.4 10.06,11.69 12.94,18.87l259.87 695.52c0.72,3.59 1.07,6.83 1.07,9.7 0,6.47 -2.16,11.86 -6.47,16.17 -4.31,4.31 -9.34,6.47 -15.1,6.47l-93.81 0c-10.06,0 -17.43,-2.34 -22.1,-7.01 -4.68,-4.67 -7.73,-9.16 -9.17,-13.48l-50.68 -131.55 -320.26 0 -50.68 131.55c-1.44,4.32 -4.5,8.81 -9.17,13.48 -4.67,4.67 -12.04,7.01 -22.1,7.01l-93.82 0 0.01 0zm213.51 -276.05l244.78 0 -122.93 -333.2 -121.85 333.2zm-3374.97 3104.54c160.93,0 291.4,87.18 291.4,194.74 0,107.55 -130.47,194.73 -291.4,194.73 -160.93,0 -291.4,-87.18 -291.4,-194.73 0,-107.56 130.47,-194.74 291.4,-194.74z"/>
 </g>
</svg>
